pedal_clip_forces_x_-0.11_y_-0.05.mot
version=1
nRows=104
nColumns=4
inDegrees=yes
endheader
time	PedalClip_calcn_r_Fx	PedalClip_calcn_r_Fy	PedalClip_calcn_r_Fz
0.85473893	-15.4574358910164	36.6719318603351	0
0.85509408	-15.5910948729317	36.7846087445052	0
0.85522796	-15.7250472441322	36.8977280423817	0
0.85548064	-15.8592819889616	37.0112687776334	0
0.85582545	-15.9937949280043	37.1252215869708	0
0.85587664	-16.1285676359955	37.2395868693323	0
0.85600439	-16.2635798442232	37.3543625725532	0
0.85635434	-16.3988170721911	37.4695288384119	0
0.85648617	-16.5342739267652	37.5850527898486	0
0.85673614	-16.6699541750881	37.7009006124396	0
0.85708037	-16.8058454455156	37.817063898354	0
0.8571303	-16.9419291953651	37.933553740134	0
0.85725814	-17.0781661309143	38.0503877548992	0
0.85760063	-17.2144195806563	38.1675868121602	0
0.85773046	-17.3504855238396	38.2851683877184	0
0.85797683	-17.4862204813141	38.4031323290694	0
0.85832098	-17.6215954431415	38.5214880292829	0
0.85836919	-17.7567062668825	38.6402532641971	0
0.85849739	-17.8917023941947	38.7594391145113	0
0.8588296	-18.0266628196062	38.8790310982807	0
0.85895768	-18.1616386023333	38.9989946693416	0
0.85919918	-18.2967231983664	39.1192899106486	0
0.8595434	-18.432105020041	39.2399048210213	0
0.85958949	-18.5679708042995	39.3608475230818	0
0.85971828	-18.7044156152521	39.4821141688961	0
0.8600372	-18.8414778225973	39.6036782323149	0
0.86016309	-18.9791588589012	39.7255068657691	0
0.86039798	-19.1174761944317	39.8476043221747	0
0.86074344	-19.2564676993404	39.9700048108046	0
0.86078616	-19.3961694814958	40.0927522991028	0
0.86091637	-19.5366061531779	40.2158691094202	0
0.86121315	-19.6777865873201	40.3393516117839	0
0.86132106	-19.8196843255197	40.4631803595686	0
0.86154438	-19.9622628038787	40.5873218956448	0
0.86189967	-20.1055477450131	40.7117397479838	0
0.8619352	-20.2495932137801	40.836410478422	0
0.86206934	-20.3944481410376	40.9613320906005	0
0.86232532	-20.5401301673332	41.086529272048	0
0.86240702	-20.6866050676404	41.2120494168184	0
0.86263383	-20.8338316456327	41.3379484421084	0
0.86294619	-20.9818317240532	41.4642743023107	0
0.86300295	-21.1306427776609	41.5910794023807	0
0.86312138	-21.2802866408691	41.7184302760387	0
0.86348268	-21.4307602527118	41.8464237530745	0
0.86361319	-21.5820407887025	41.9751955353081	0
0.86385458	-21.7341145368347	42.1048695057914	0
0.86421561	-21.8870274643883	42.2355117987619	0
0.86425171	-22.040856956068	42.367147177021	0
0.86438445	-22.1956890141007	42.4998045223521	0
0.86464281	-22.3515937237104	42.633543777923	0
0.86472802	-22.5085929098549	42.7684338814721	0
0.86494491	-22.6666854481825	42.9045453374361	0
0.86526106	-22.8258845671696	43.0419132676441	0
0.86531448	-22.986198754842	43.1805701606991	0
0.86543404	-23.1476411488348	43.3205781637505	0
0.86577893	-23.3102248301827	43.4620473078938	0
0.86590458	-23.4739593291596	43.6050961819725	0
0.86614595	-23.6388625129166	43.749810210523	0
0.86657653	-23.8049615854731	43.8962161560701	0
0.86661958	-23.9722657619363	44.0443392005276	0
0.86672508	-24.1407483996996	44.1942242841205	0
0.86691737	-24.3103445216183	44.3459370714154	0
0.86700786	-24.4809590341632	44.4995152643503	0
0.86725224	-24.6524773624794	44.6549313591153	0
0.86752818	-24.8247648379738	44.812081669818	0
0.86758687	-24.997694709768	44.970852665767	0
0.86769669	-25.1711739502522	45.1311578114749	0
0.86803692	-25.3451550312654	45.2929404874257	0
0.86816632	-25.5196383997552	45.4561562861385	0
0.86840399	-25.6946587410888	45.620761704892	0
0.8688253	-25.8702558103873	45.7867146867344	0
0.86894921	-26.0464631625023	45.9540063803177	0
0.8691834	-26.2233064621932	46.1226622605444	0
0.86926653	-26.4008029469464	46.2927284367734	0
0.8694779	-26.5789668172944	46.4642530066714	0
0.86976556	-26.7578127069459	46.6372757957088	0
0.86982352	-26.9373402064983	46.8118274320165	0
0.86993571	-27.117539390658	46.9879428392586	0
0.87029009	-27.2983981174789	47.1656613120311	0
0.87042273	-27.4799070801308	47.3450153660116	0
0.87064915	-27.6620674394515	47.5260247388518	0
0.87105288	-27.8448919316923	47.7086885936533	0
0.87114642	-28.0283816861785	47.8929898680851	0
0.87141084	-28.2125358098154	48.0789108593751	0
0.87166079	-28.3973666232949	48.2664461330767	0
0.87189314	-28.5829277192065	48.4556221094776	0
0.87212819	-28.7693152218886	48.6464826367341	0
0.87234821	-28.9566278187618	48.8390577781719	0
0.87258999	-29.1449202453027	49.0333387432587	0
0.87280083	-29.3342081465511	49.2292917301268	0
0.87310224	-29.5244967922034	49.4268811388356	0
0.87330616	-29.7158542185848	49.6261126742968	0
0.87361691	-29.9083865768057	49.8270266714218	0
0.87366185	-30.10215622443	50.0296600139114	0
0.87378107	-30.2971071382006	50.2339925626867	0
0.87406732	-30.4930880377349	50.4399446754404	0
0.87417937	-30.6899232472896	50.6474004494927	0
0.87439602	-30.8875121281031	50.856272368575	0
0.87473545	-31.0858215938501	51.0665146626739	0
0.87500202	-31.2848142882538	51.2780821822924	0
0.87505896	-31.4843736841692	51.4908746882093	0
0.87516603	-31.6843457958815	51.7047364982703	0
0.87549511	-31.8846019757685	51.919488042034	0
0.87562056	-32.0851020124872	52.1349931594671	0
